<svg xmlns="http://www.w3.org/2000/svg" viewBox="0 0 1771.49 1071.47"><defs><style>.cls-1{fill:#0066fe;}.cls-2{fill:#9400fe;}.cls-3{fill:#df004e;}.cls-4{fill:#c3005b;}.cls-5{fill:#d2ab00;}.cls-6{fill:#00bd8b;}.cls-7{fill:#1b7d00;}.cls-8{fill:#c19d00;}.cls-9{fill:#0166fe;}.cls-10{fill:#0167fe;}.cls-11{fill:#0368fe;}.cls-12{fill:#fe83bc;}.cls-13{fill:#fecf00;}.cls-14{fill:#fdfdfe;}.cls-15{fill:#fafcfe;}.cls-16{fill:#fbfcfe;}.cls-17{fill:#fefefe;}</style></defs><g id="Layer_2" data-name="Layer 2"><g id="Layer_1-2" data-name="Layer 1"><path class="cls-1" d="M784.34,1071.47c-20.47-21.8-19.87-48.75-18.18-75.77.79-12.72,10.55-29.65,2-36.74-7.31-6.07-24.64.94-37.55,2.61-94.89,12.33-189.16,28.35-283.17,45.94-57.1,10.69-114,22.33-171,33.7-38.88,7.77-61.16-7.34-67.91-46.4-5.73-33.11,9.41-55.38,41.9-62.26,123.05-26.06,246.85-47.73,371.74-62.71,46-5.51,92.22-9,138.4-12.66,27.05-2.13,26.88-1.46,32-31,9.71-56.53,15.71-113.51,21.54-171-9,.68-9.78,9-13.51,13.9C793,679,787.06,690.17,779.4,700c-25.73,33.13-59.24,35.65-90.1,6.68-20.93-19.66-34.1-44.6-45.79-70.38-14-30.76-23.46-63-31.34-95.68-4.11-17-.11-32.11,12.89-44.5a118.35,118.35,0,0,1,27.16-19.92c25.78-13.35,31.09-11.05,38.63,17,7.41,27.58,9.74,56.45,21.09,83,4.16,9.75,7.27,21,19.44,23,12.39,2.08,16.8-9.43,22.56-16.94,19.86-25.91,35.24-54.54,49.06-84,8.13-17.33,19.35-31.82,36.35-41.59,37.11-21.33,71.3-2.42,73.18,40.33,1.44,32.74-4.34,64.89-8.33,97-11.91,96.16-25.28,192.14-44.61,287.17-10.06,49.45-20,98.94-30.64,148.25-3.4,15.69-11.6,29.57-22,42Z"/><path class="cls-2" d="M444.57,506.5c21.92-25.95,39.87-46.73,60.8-64.61a242.71,242.71,0,0,1,19-15.14c37.44-25.92,55.83-22.86,84.36,13,8.71,10.94,9.71,20-.52,31.1-25.41,27.66-51,55.21-73.53,85.42-36.56,48.95-32.24,75.83,18.49,111.17,28.19,19.64,58.84,33.11,92.8,39,21.4,3.72,36.82,15.28,44.11,36.06,5.93,16.92.22,30.65-15.63,39.13-23.62,12.65-48.86,10.19-73.5,5.68-54.5-10-85.71-26.75-148-76.24-6.82,4.38-3.93,11.33-3.84,17,.47,28.85-1.55,57.54-3.81,86.26-1,12.75-6.14,20.75-18.46,25.21-19.15,6.94-38.7,9.53-58.91,8.78-18.07-.68-24.85-10.06-24.68-27.74.41-42.68,4.63-85.11,8.6-127.48,9.85-105.16,7.41-210.15.24-315.29-3.71-54.33-8.41-108.63-8.73-163.17-.1-17.53,5.63-31.68,18.54-43.36,17.17-15.54,36.41-11.11,40.87,11.24,7.68,38.51,14.07,77.33,19.59,116.22,6.74,47.54,12.36,95.25,17.79,143C442.45,461.42,442.94,481.34,444.57,506.5Z"/><path class="cls-3" d="M317.85,420.73c1.53,7.66-4.89,14.48-15.73,19.76-36.7,17.88-76.75,26-114.79,39.95-23,8.43-46.3,16-66,31-24.11,18.36-23.25,37.93,3.19,52.58,32,17.74,67.86,25.53,102.14,37.41,18.29,6.33,36.47,12.88,53.62,22,45.33,24.16,57.49,53,42.47,102.37-11.85,39-37.17,69.07-65.73,96.68-39.08,37.78-83.29,68-134.12,88.09-19.69,7.8-35.18,3-48.21-13.22-15.89-19.83-26.84-42-34.27-66.19-5.72-18.64.41-31.41,17.06-40.58C86,774.9,117,764.79,146.89,752.07c16.13-6.87,32.06-14.14,46-24.75,22.92-17.43,20.47-34.25-6.4-44.68-38.95-15.11-80.69-22.09-118.73-39.79C22.41,621.74-5,596.42.76,544.59c3.45-31.21,16.1-58.8,35.28-83.37,45.63-58.47,107.89-91.87,176.49-115.3,13.48-4.61,27.52-7.73,41.46-10.81,25.22-5.57,38.74,1.26,50.21,24.5C312.94,377.31,315.85,396.33,317.85,420.73Z"/><path class="cls-4" d="M1303.38,152.5c.46-21.25-1.46-42.88,1.9-63.66,6-37.33,31.84-59.47,65.91-71.54,48.58-17.19,98.2-23.09,149.34-10.71,27.7,6.7,47,21.76,56.83,48.34,24.3,65.86,34.38,133.58,24.43,203.49-3.39,23.86-15.6,41.79-40,49C1498,326.38,1433,331.59,1367.11,321.76c-7.79-1.17-15.08-5.68-22.59-8.65-19-7.87-22.63-26.5-29.88-42.63-12.42-34.22-13.18-70.12-15.43-105.81C1299.32,160.17,1300.07,155.89,1303.38,152.5Z"/><path class="cls-1" d="M1584.29,507.06c37.88-.29,71,10.05,90.24,45.5,18.83,34.69,12.9,69.32-6.3,101.8-14.5,24.53-36.83,40.71-63.42,50.78-7.6,2.87-15.71,4.4-23.32,7.26-4.68,1.75-13.44-2.11-13.31,6.23.09,5.67,7.22,7.91,12.36,10.31,44.59,20.84,87.69,10.78,130.43-6.3,13.87-5.55,27-13.29,42.59-13.49,15-.19,20.82,6.8,16.57,21.38-2.62,9-5.65,18.13-13.13,24.5-45.62,38.77-98.15,59.45-158.35,58.2-75.26-1.56-125.19-66.5-139.19-127.35-7.44-32.33-6.09-64.55,5.78-96C1486,535.08,1526,507.21,1584.29,507.06Z"/><path class="cls-5" d="M1443.72,756.6a30.23,30.23,0,0,1,0,5.63c-2.7,14,8.18,33.15-8.42,41.37-20.56,10.19-44,9.33-66.19,2.34-10.17-3.2-10.34-13.65-11.08-22.1-3.14-35.55-5.58-71.16-8.4-106.73-1.38-17.44-2.86-34.86-6.92-52-2.72-11.49-7.76-10.56-13-2.41-11.1,17.41-21.54,35.24-32.09,53-13.46,22.64-27.76,44.67-45,64.68-7,8.14-15,15.19-24.51,20.23-24.53,12.94-38.57,5.35-41.86-21.83-6.13-50.76,2.2-101.23,2.73-151.86.19-17.47,3-34.9,3.54-52.38.55-17.93,10.92-25.21,26.85-26.89,33.44-3.53,38.14-3.56,36.08,28-.3,4.59-1.92,10.66,4.8,12.66,5.08,1.51,8-2.58,11.16-5.51,12.34-11.55,23.88-24,38.35-33.11,41.26-26,80-14.71,100.2,30,15.57,34.44,20.59,71.73,25.45,108.57C1440.14,684.1,1444.65,720.2,1443.72,756.6Z"/><path class="cls-6" d="M1029.12,421.72c2.91,96.54-4,192.82-8.08,289.15-.77,18.26-.85,37.35-11.88,54.09-11.79,17.88-29,25.8-48.94,27.43-21.4,1.75-34.29-11.9-33.15-33.07Q942.76,467.65,958.72,176c1.08-19.76,7.13-38.16,19.92-53.71,6.63-8.07,14.39-13.92,26.09-10.07,11.34,3.73,12,13.59,13.06,22.56,5,44.17,6.14,88.62,9.12,132.93C1030.36,319.06,1028.11,370.39,1029.12,421.72Z"/><path class="cls-1" d="M1370.53,913.44a3599.15,3599.15,0,0,0-426.06,21.81c-17.38,1.93-34.88,2.9-52.29,4.62-8.8.87-12.53-1-10.46-11.18,4.71-23.19,8.53-46.58,12.25-70,1.46-9.24,6.88-11.74,15.21-11.89,26.94-.5,53.9-.69,80.8-2,101.6-5.12,203,0,304.55,3.38,88.29,3,176.17,12,264.32,16.79,18.76,1,37.5,4,53.94,14.07,6.8,4.15,14.09,9.37,12,19.27-1.91,9-9.92,11-17.24,12.28-30.51,5.41-61.36,2.43-92,2.72C1467.18,913.77,1418.86,913.44,1370.53,913.44Z"/><path class="cls-7" d="M1061.49,657.72c3.69-48.05,6.22-96.07,11.16-144,1.93-18.62,13.27-24.4,28.56-26.19,16-1.87,28.08,4.21,33.55,20.45,10.26,30.41,12.58,62.38,14.29,93.77,2.54,46.6,7.88,93.3,1.48,140.27-2.11,15.51-8,23-22.42,24.23-15.54,1.32-31,3.32-46.81,1.5-14.06-1.62-19.88-8.53-19.84-22C1061.55,716.44,1061.49,687.08,1061.49,657.72Z"/><path class="cls-8" d="M1303.38,152.5l.14,12.86c-7.45,6.42-16.56,4.61-25.12,4.68-13.33.1-26.13,2.2-38.16,8-9.58,4.65-16.37,11.83-16.84,22.93-.75,17.43-1.36,34.9.69,52.3,1.91,16.17,9.93,26.6,27,28.32,23.49,2.36,47.27,7.16,68.72-8,6.73,14.1,13.59,28.11,24.68,39.48-9.57,55.57-27.72,54.82-88.09,57.78-13.56.67-28.15-1.9-42.25-3.13-19.51,3.91-36.79-3.21-42-20.19-4-13.14-15.83-24.33-11.16-39.86,0-27.32-.8-54.67.36-81.94,1.12-26.26,7.21-50.87,33.52-64.66,12-6.27,25.13-8.28,38.09-9.4C1256.43,149.72,1280.08,142.2,1303.38,152.5Z"/><path class="cls-7" d="M1161.08,307.72c4.84,14,11.33,27.38,16.5,41.31,5.8,15.61,23.84,13.33,36.61,18.74-.07,8.71.38,17.41-2.27,26-6,19.29-6.6,44.91-28.48,51.19-28.3,8.12-58.34,4.78-85.17-10.49-9.62-5.47-12.23-15.3-12.43-25.69-.52-27.08,5.35-53.22,13.75-78.63,6.23-18.85,23.27-27.8,43-25.18C1148.75,305.76,1154.91,306.78,1161.08,307.72Z"/><path class="cls-9" d="M1213.9,1016.52c-.13,29.31-18.68,50.38-43.73,49.67-23.57-.68-40.81-21.2-41-48.79-.16-29.06,18.51-51.14,43.17-51.07C1196.13,966.39,1214,988,1213.9,1016.52Z"/><path class="cls-10" d="M1289.79,1062c-17.66,6.68-25.72.16-28.08-17.35-.78-5.76-.77-15.7-10.91-14.41-10.88,1.38-5.1,10.82-5.63,16.45-.86,9.13,2.58,19.26-13.35,17.62-8-.83-10.7-2.84-10.55-10.91.42-24.33.5-48.68,0-73-.19-8.23,3.27-10,10.44-11.35a82.24,82.24,0,0,1,37,1.14c15.15,4,24.56,19.61,16.88,33.12-7.27,12.78-7.61,22.76-1.07,35.29C1288.05,1045.47,1288.14,1054.18,1289.79,1062Z"/><path class="cls-9" d="M1062.58,999.9c2.72,7.88,2.46,16,1.76,24.12-2.1,24.59-15.85,39.25-38,40.94-24,1.82-38.07-9.67-43.85-36-5.24-23.79,4.9-49.56,22.94-58.28,18.83-9.1,35.8-4.39,50.25,13.95C1062.27,987.83,1060.33,994.81,1062.58,999.9Z"/><path class="cls-9" d="M975.18,1062.22c-15.52,4.93-26,2.06-28-16.49-.44-4.22-2.15-8.4-3.83-12.36-1.41-3.35-4.78-3.69-8-3.33-4.24.48-4.18,3.72-4.18,6.89,0,6.27-.48,12.56,0,18.78.65,8.88-5.16,8.38-10.95,8.22-5.4-.15-11.66,1.56-11.59-7.61.22-26.31,0-52.62.17-78.92,0-2.22.69-5.19,2.2-6.52,11.51-10.12,53.27-1.48,59.42,12.59,2.14,4.91,4.49,13.11,2.1,16.07C954.83,1021.45,974.66,1041.05,975.18,1062.22Z"/><path class="cls-9" d="M1368.91,1006c0,7.5.23,15-.05,22.51-.89,24-13.18,36.75-35.34,36.88-23.64.15-36.07-12.3-36.67-37.35-.38-15.65,0-31.3-.1-47,0-7-1.14-14,9.75-13.75,9.25.2,13.61,3,13.1,13.18-.76,15-.43,30-.1,45.06.19,9.08,2,18.8,13.21,19.22,12.06.46,12.9-9.83,13.13-18.73.39-15,.7-30.07.06-45.07-.42-10,4.1-13.48,13.21-13.52,10.18-.06,10.24,6.85,10.13,14.12-.11,8.13,0,16.27,0,24.41Z"/><path class="cls-9" d="M1450.21,1062.67c-13.65,2.53-26.53,4.58-29-14.32-1-7.3-6.93-5.86-11.68-6.07-5-.22-11.27-1.08-11.89,5.79-1.67,18.46-13.18,17.59-28,14.48,7.83-29.29,15.61-58,23.14-86.75,2.46-9.39,9.78-8.54,16.49-8,7.66.62,16.35-1,19.12,10.45C1435.12,1006.47,1442.84,1034.48,1450.21,1062.67Z"/><path class="cls-11" d="M1062.58,999.9l-6.87-15.22a13.49,13.49,0,0,0,3.68-.28c7.45-2.73-1.72-16,10.67-16.16,18.75-.21,37.57-2.3,56.15.9,6.51,1.12,3.9,8.1,4.27,12.79.54,6.9-3.63,9-9.36,8.16-11.82-1.66-13.29,4.72-13,14.35.56,16.23-.4,32.53.37,48.74.48,10-4.2,10.89-12.31,11-8.8.14-12.22-2.45-11.86-11.63.65-16.85.13-33.74.32-50.62.09-7.53-2.82-11.59-10.76-12.17C1066.25,989.23,1061.94,991.57,1062.58,999.9Z"/><path class="cls-12" d="M1463.93,213.27c-5.64,0-11.29.24-16.92,0-30.89-1.51-41.29-9.14-48.76-38.93-7.34-29.26-9-59.28-7.49-89.36,1.14-22.1,15.46-36.13,34.12-43.14,30.06-11.28,61.4-15.47,93.93-9.69,22.46,4,36.25,16.24,42.51,37,9.58,31.84,16.06,64.19,11.18,97.82-3.66,25.21-10.64,33.21-36,38.6A330.7,330.7,0,0,1,1463.93,213.27Z"/><path class="cls-13" d="M1319.85,273.64c.38,13.91-11.12,14.05-19.55,14.71-20.51,1.61-41.16,1.35-61.39-3.57-17-4.15-19-19.21-20.33-32.25-1.88-18.55-1.34-37.47-.38-56.16.82-16,22.58-29.78,47.78-31.09,12.48-.65,25,0,37.54.08C1307.62,201.66,1308.87,238.38,1319.85,273.64Z"/><path class="cls-14" d="M1537.5,630.13c.06-26,10.43-42.91,28.66-47.67,9.31-2.43,18.57-3,25.8,5.75,7.46,9,7.18,18.61,1.69,27.81-10.74,18-29,26.26-48,29.77C1530.3,648.62,1543.22,632.78,1537.5,630.13Z"/><path class="cls-14" d="M1188.64,1016.59c-1.68,11.67-.3,27.71-17.17,27.62-16.38-.08-17.54-16-17.4-28.06s1.63-27.93,18.39-27C1187.1,989.91,1188.21,1004.08,1188.64,1016.59Z"/><path class="cls-15" d="M1263.17,999.37c-1,5.9-4.93,10.25-11.1,9.48-6.87-.87-7.23-8-7.54-13.14-.28-4.81,3.5-7.86,8.62-7.59C1259.77,988.47,1263.33,992.06,1263.17,999.37Z"/><path class="cls-16" d="M1006.36,1016.1c.35-3.77,0-8.35,1.33-12.39,2.35-7.21,5.67-14.47,14.73-15s13.23,5.82,15.33,13.56c1.3,4.76,3.48,10.05,2.51,14.51-2.3,10.55.91,26.27-17.1,25.82C1006,1042.19,1007.7,1028.21,1006.36,1016.1Z"/><path class="cls-15" d="M941.22,987.76c4.16-.53,6.91,4.07,7,10.26.11,5.15-1.8,9.25-8.15,10.46-8.18,1.55-10.12-4.73-10.93-9.42C928.27,993.86,930.67,988.28,941.22,987.76Z"/><path class="cls-17" d="M1407.42,993.82c6.86,5.4,6.07,12.92,6.54,20.08.29,4.55.68,8.94-6,8.68s-6.14-5.29-5.45-9.29C1403.61,1006.76,1405.7,1000.4,1407.42,993.82Z"/></g></g></svg>