<svg width="1772" height="1095" viewBox="0 0 1772 1095" fill="none" xmlns="http://www.w3.org/2000/svg">
<g clip-path="url(#clip0)">
<mask id="mask0" mask-type="alpha" maskUnits="userSpaceOnUse" x="-1" y="134" width="1773" height="961">
<path d="M784.34 1094.47C763.87 1072.67 764.47 1045.72 766.16 1018.7C766.95 1005.98 776.71 989.05 768.16 981.96C760.85 975.89 743.52 982.9 730.61 984.57C635.72 996.9 541.45 1012.92 447.44 1030.51C390.34 1041.2 333.44 1052.84 276.44 1064.21C237.56 1071.98 215.28 1056.87 208.53 1017.81C202.8 984.7 217.94 962.43 250.43 955.55C373.48 929.49 497.28 907.82 622.17 892.84C668.17 887.33 714.39 883.84 760.57 880.18C787.62 878.05 787.45 878.72 792.57 849.18C802.28 792.65 808.28 735.67 814.11 678.18C805.11 678.86 804.33 687.18 800.6 692.08C793 702 787.06 713.17 779.4 723C753.67 756.13 720.16 758.65 689.3 729.68C668.37 710.02 655.2 685.08 643.51 659.3C629.51 628.54 620.05 596.3 612.17 563.62C608.06 546.62 612.06 531.51 625.06 519.12C633.117 511.219 642.263 504.511 652.22 499.2C678 485.85 683.31 488.15 690.85 516.2C698.26 543.78 700.59 572.65 711.94 599.2C716.1 608.95 719.21 620.2 731.38 622.2C743.77 624.28 748.18 612.77 753.94 605.26C773.8 579.35 789.18 550.72 803 521.26C811.13 503.93 822.35 489.44 839.35 479.67C876.46 458.34 910.65 477.25 912.53 520C913.97 552.74 908.19 584.89 904.2 617C892.29 713.16 878.92 809.14 859.59 904.17C849.53 953.62 839.59 1003.11 828.95 1052.42C825.55 1068.11 817.35 1081.99 806.95 1094.42L784.34 1094.47Z" fill="#0066FE"/>
<path d="M444.57 529.5C466.49 503.55 484.44 482.77 505.37 464.89C511.447 459.529 517.788 454.476 524.37 449.75C561.81 423.83 580.2 426.89 608.73 462.75C617.44 473.69 618.44 482.75 608.21 493.85C582.8 521.51 557.21 549.06 534.68 579.27C498.12 628.22 502.44 655.1 553.17 690.44C581.36 710.08 612.01 723.55 645.97 729.44C667.37 733.16 682.79 744.72 690.08 765.5C696.01 782.42 690.3 796.15 674.45 804.63C650.83 817.28 625.59 814.82 600.95 810.31C546.45 800.31 515.24 783.56 452.95 734.07C446.13 738.45 449.02 745.4 449.11 751.07C449.58 779.92 447.56 808.61 445.3 837.33C444.3 850.08 439.16 858.08 426.84 862.54C407.69 869.48 388.14 872.07 367.93 871.32C349.86 870.64 343.08 861.26 343.25 843.58C343.66 800.9 347.88 758.47 351.85 716.1C361.7 610.94 359.26 505.95 352.09 400.81C348.38 346.48 343.68 292.18 343.36 237.64C343.26 220.11 348.99 205.96 361.9 194.28C379.07 178.74 398.31 183.17 402.77 205.52C410.45 244.03 416.84 282.85 422.36 321.74C429.1 369.28 434.72 416.99 440.15 464.74C442.45 484.42 442.94 504.34 444.57 529.5Z" fill="#9400FE"/>
<path d="M317.85 443.73C319.38 451.39 312.96 458.21 302.12 463.49C265.42 481.37 225.37 489.49 187.33 503.44C164.33 511.87 141.03 519.44 121.33 534.44C97.22 552.8 98.08 572.37 124.52 587.02C156.52 604.76 192.38 612.55 226.66 624.43C244.95 630.76 263.13 637.31 280.28 646.43C325.61 670.59 337.77 699.43 322.75 748.8C310.9 787.8 285.58 817.87 257.02 845.48C217.94 883.26 173.73 913.48 122.9 933.57C103.21 941.37 87.72 936.57 74.69 920.35C58.8 900.52 47.85 878.35 40.42 854.16C34.7 835.52 40.83 822.75 57.48 813.58C86 797.9 117 787.79 146.89 775.07C163.02 768.2 178.95 760.93 192.89 750.32C215.81 732.89 213.36 716.07 186.49 705.64C147.54 690.53 105.8 683.55 67.76 665.85C22.41 644.74 -4.99998 619.42 0.760024 567.59C4.21002 536.38 16.86 508.79 36.04 484.22C81.67 425.75 143.93 392.35 212.53 368.92C226.01 364.31 240.05 361.19 253.99 358.11C279.21 352.54 292.73 359.37 304.2 382.61C312.94 400.31 315.85 419.33 317.85 443.73Z" fill="#DF004E"/>
<path d="M1584.29 530.06C1622.17 529.77 1655.29 540.11 1674.53 575.56C1693.36 610.25 1687.43 644.88 1668.23 677.36C1653.73 701.89 1631.4 718.07 1604.81 728.14C1597.21 731.01 1589.1 732.54 1581.49 735.4C1576.81 737.15 1568.05 733.29 1568.18 741.63C1568.27 747.3 1575.4 749.54 1580.54 751.94C1625.13 772.78 1668.23 762.72 1710.97 745.64C1724.84 740.09 1737.97 732.35 1753.56 732.15C1768.56 731.96 1774.38 738.95 1770.13 753.53C1767.51 762.53 1764.48 771.66 1757 778.03C1711.38 816.8 1658.85 837.48 1598.65 836.23C1523.39 834.67 1473.46 769.73 1459.46 708.88C1452.02 676.55 1453.37 644.33 1465.24 612.88C1486 558.08 1526 530.21 1584.29 530.06Z" fill="#0066FE"/>
<path d="M1443.72 779.6C1443.9 781.473 1443.9 783.357 1443.72 785.23C1441.02 799.23 1451.9 818.38 1435.3 826.6C1414.74 836.79 1391.3 835.93 1369.11 828.94C1358.94 825.74 1358.77 815.29 1358.03 806.84C1354.89 771.29 1352.45 735.68 1349.63 700.11C1348.25 682.67 1346.77 665.25 1342.71 648.11C1339.99 636.62 1334.95 637.55 1329.71 645.7C1318.61 663.11 1308.17 680.94 1297.62 698.7C1284.16 721.34 1269.86 743.37 1252.62 763.38C1245.62 771.52 1237.62 778.57 1228.11 783.61C1203.58 796.55 1189.54 788.96 1186.25 761.78C1180.12 711.02 1188.45 660.55 1188.98 609.92C1189.17 592.45 1191.98 575.02 1192.52 557.54C1193.07 539.61 1203.44 532.33 1219.37 530.65C1252.81 527.12 1257.51 527.09 1255.45 558.65C1255.15 563.24 1253.53 569.31 1260.25 571.31C1265.33 572.82 1268.25 568.73 1271.41 565.8C1283.75 554.25 1295.29 541.8 1309.76 532.69C1351.02 506.69 1389.76 517.98 1409.96 562.69C1425.53 597.13 1430.55 634.42 1435.41 671.26C1440.14 707.1 1444.65 743.2 1443.72 779.6Z" fill="#D2AB00"/>
<path d="M1029.12 444.72C1032.03 541.26 1025.12 637.54 1021.04 733.87C1020.27 752.13 1020.19 771.22 1009.16 787.96C997.37 805.84 980.16 813.76 960.22 815.39C938.82 817.14 925.93 803.49 927.07 782.32C937.53 587.873 948.08 393.433 958.72 199C959.8 179.24 965.85 160.84 978.64 145.29C985.27 137.22 993.03 131.37 1004.73 135.22C1016.07 138.95 1016.73 148.81 1017.79 157.78C1022.79 201.95 1023.93 246.4 1026.91 290.71C1030.36 342.06 1028.11 393.39 1029.12 444.72Z" fill="#00BD8B"/>
<path d="M1370.53 936.44C1228.2 935.279 1085.93 942.562 944.47 958.25C927.09 960.18 909.59 961.15 892.18 962.87C883.38 963.74 879.65 961.87 881.72 951.69C886.43 928.5 890.25 905.11 893.97 881.69C895.43 872.45 900.85 869.95 909.18 869.8C936.12 869.3 963.08 869.11 989.98 867.8C1091.58 862.68 1192.98 867.8 1294.53 871.18C1382.82 874.18 1470.7 883.18 1558.85 887.97C1577.61 888.97 1596.35 891.97 1612.79 902.04C1619.59 906.19 1626.88 911.41 1624.79 921.31C1622.88 930.31 1614.87 932.31 1607.55 933.59C1577.04 939 1546.19 936.02 1515.55 936.31C1467.18 936.77 1418.86 936.44 1370.53 936.44Z" fill="#0066FE"/>
<path d="M1061.49 680.72C1065.18 632.67 1067.71 584.65 1072.65 536.72C1074.58 518.1 1085.92 512.32 1101.21 510.53C1117.21 508.66 1129.29 514.74 1134.76 530.98C1145.02 561.39 1147.34 593.36 1149.05 624.75C1151.59 671.35 1156.93 718.05 1150.53 765.02C1148.42 780.53 1142.53 788.02 1128.11 789.25C1112.57 790.57 1097.11 792.57 1081.3 790.75C1067.24 789.13 1061.42 782.22 1061.46 768.75C1061.55 739.44 1061.49 710.08 1061.49 680.72Z" fill="#1B7D00"/>
</mask>
<g mask="url(#mask0)">
<rect y="23" width="1771.49" height="1064.19" fill="url(#paint0_linear)"/>
</g>
</g>
<path d="M1541.85 652.727C1544.66 626.167 1553.93 610.22 1572.16 605.46C1581.47 603.03 1590.73 602.46 1597.96 611.21C1605.42 620.21 1605.14 629.82 1599.65 639.02C1588.91 657.02 1570.65 665.28 1551.65 668.79C1540.78 670.799 1541.31 657.813 1541.85 652.727Z" fill="#FDFDFE"/>
<path d="M1161.08 330.72C1165.92 344.72 1172.41 358.1 1177.58 372.03C1183.38 387.64 1201.42 385.36 1214.19 390.77C1214.12 399.48 1214.57 408.18 1211.92 416.77C1205.92 436.06 1205.32 461.68 1183.44 467.96C1155.14 476.08 1125.1 472.74 1098.27 457.47C1088.65 452 1086.04 442.17 1085.84 431.78C1085.32 404.7 1091.19 378.56 1099.59 353.15C1105.82 334.3 1122.86 325.35 1142.59 327.97C1148.75 328.76 1154.91 329.78 1161.08 330.72Z" fill="#1B7D00"/>
<path d="M1308.42 157.536L1308.58 172.585C1299.87 180.098 1289.21 177.98 1279.19 178.061C1263.59 178.178 1248.61 180.636 1234.53 187.423C1223.32 192.864 1215.38 201.266 1214.83 214.255C1213.95 234.652 1213.24 255.095 1215.64 275.456C1217.87 294.378 1227.26 306.583 1247.23 308.596C1274.72 311.358 1302.55 316.975 1327.65 299.235C1335.52 315.734 1343.55 332.129 1356.53 345.434C1345.33 410.461 1324.09 409.583 1253.45 413.047C1237.58 413.831 1220.5 410.824 1204 409.384C1181.17 413.96 1160.95 405.628 1154.86 385.758C1150.18 370.382 1136.33 357.288 1141.8 339.115C1141.8 307.145 1140.86 275.14 1142.22 243.229C1143.53 212.5 1150.66 183.702 1181.44 167.565C1195.49 160.228 1210.85 157.876 1226.02 156.565C1253.48 154.283 1281.16 145.483 1308.42 157.536Z" fill="white"/>
<path d="M1303.38 175.5L1303.52 188.36C1296.07 194.78 1286.96 192.97 1278.4 193.04C1265.07 193.14 1252.27 195.24 1240.24 201.04C1230.66 205.69 1223.87 212.87 1223.4 223.97C1222.65 241.4 1222.04 258.87 1224.09 276.27C1226 292.44 1234.02 302.87 1251.09 304.59C1274.58 306.95 1298.36 311.75 1319.81 296.59C1326.54 310.69 1333.4 324.7 1344.49 336.07C1334.92 391.64 1316.77 390.89 1256.4 393.85C1242.84 394.52 1228.25 391.95 1214.15 390.72C1194.64 394.63 1177.36 387.51 1172.15 370.53C1168.15 357.39 1156.32 346.2 1160.99 330.67C1160.99 303.35 1160.19 276 1161.35 248.73C1162.47 222.47 1168.56 197.86 1194.87 184.07C1206.87 177.8 1220 175.79 1232.96 174.67C1256.43 172.72 1280.08 165.2 1303.38 175.5Z" fill="#28B801"/>
<path d="M1319.85 296.64C1320.23 310.55 1308.73 310.69 1300.3 311.35C1279.79 312.96 1259.14 312.7 1238.91 307.78C1221.91 303.63 1219.91 288.57 1218.58 275.53C1216.7 256.98 1217.24 238.06 1218.2 219.37C1219.02 203.37 1240.78 189.59 1265.98 188.28C1278.46 187.63 1290.98 188.28 1303.52 188.36C1307.62 224.66 1308.87 261.38 1319.85 296.64Z" fill="#1B7D00"/>
<path d="M1279.89 174.044C1280.41 149.792 1278.22 125.107 1282.06 101.391C1288.91 58.788 1318.4 33.5204 1357.28 19.7453C1412.72 0.126939 1469.35 -6.60652 1527.72 7.52234C1559.33 15.1688 1581.35 32.3563 1592.57 62.6911C1620.31 137.855 1631.81 215.141 1620.45 294.927C1616.59 322.158 1602.65 342.621 1574.8 350.849C1502 372.487 1427.82 378.433 1352.62 367.215C1343.73 365.88 1335.41 360.732 1326.84 357.343C1305.16 348.361 1301.01 327.099 1292.74 308.691C1278.57 269.637 1277.7 228.665 1275.13 187.934C1275.26 182.798 1276.11 177.913 1279.89 174.044Z" fill="white"/>
<path d="M1301.46 175.5C1301.92 154.25 1300 132.62 1303.36 111.84C1309.36 74.51 1335.2 52.37 1369.27 40.3C1417.85 23.11 1467.47 17.21 1518.61 29.59C1546.31 36.29 1565.61 51.35 1575.44 77.93C1599.74 143.79 1609.82 211.51 1599.87 281.42C1596.48 305.28 1584.27 323.21 1559.87 330.42C1496.08 349.38 1431.08 354.59 1365.19 344.76C1357.4 343.59 1350.11 339.08 1342.6 336.11C1323.6 328.24 1319.97 309.61 1312.72 293.48C1300.3 259.26 1299.54 223.36 1297.29 187.67C1297.4 183.17 1298.15 178.89 1301.46 175.5Z" fill="#1B7D00"/>
<path d="M1463.93 236.27C1458.29 236.27 1452.64 236.51 1447.01 236.27C1416.12 234.76 1405.72 227.13 1398.25 197.34C1390.91 168.08 1389.25 138.06 1390.76 107.98C1391.9 85.88 1406.22 71.85 1424.88 64.84C1454.94 53.56 1486.28 49.37 1518.81 55.15C1541.27 59.15 1555.06 71.39 1561.32 92.15C1570.9 123.99 1577.38 156.34 1572.5 189.97C1568.84 215.18 1561.86 223.18 1536.5 228.57C1512.67 233.806 1488.33 236.388 1463.93 236.27Z" fill="#28B801"/>
<defs>
<linearGradient id="paint0_linear" x1="885.745" y1="23" x2="885.745" y2="1144.3" gradientUnits="userSpaceOnUse">
<stop stop-color="#B7D20B"/>
<stop offset="1" stop-color="#007A22"/>
</linearGradient>
<clipPath id="clip0">
<rect width="1771.49" height="1071.47" fill="white" transform="translate(0 23)"/>
</clipPath>
</defs>
</svg>
